<svg width="327" height="247" viewBox="0 0 327 247" fill="none" xmlns="http://www.w3.org/2000/svg">
<path d="M28.6753 227.515C23.9346 227.515 20.0915 223.672 20.0915 218.931C20.0915 214.19 23.9346 210.347 28.6752 210.347L49.6113 210.347C54.352 210.347 58.1951 214.19 58.1951 218.931C58.1951 223.672 54.352 227.515 49.6113 227.515L28.6753 227.515Z" fill="white" stroke="black" stroke-width="1.25616"/>
<path d="M82.2714 227.515C77.5307 227.515 73.6877 223.672 73.6877 218.931C73.6877 214.19 77.5307 210.347 82.2714 210.347L103.207 210.347C107.948 210.347 111.791 214.19 111.791 218.931C111.791 223.672 107.948 227.515 103.207 227.515L82.2714 227.515Z" fill="white" stroke="black" stroke-width="1.25616"/>
<path d="M264.834 227.515C260.093 227.515 256.25 223.672 256.25 218.931C256.25 214.19 260.093 210.347 264.834 210.347L285.77 210.347C290.51 210.347 294.354 214.19 294.354 218.931C294.354 223.672 290.51 227.515 285.77 227.515L264.834 227.515Z" fill="white" stroke="black" stroke-width="1.25616"/>
<rect x="-0.628082" y="-0.628082" width="218.154" height="265.888" rx="19.4705" transform="matrix(3.41176e-08 -1 -1 -5.60029e-08 266.09 218.512)" fill="black" stroke="black" stroke-width="1.25616"/>
<rect x="-0.628082" y="-0.628082" width="218.154" height="265.888" rx="19.4705" transform="matrix(3.41176e-08 -1 -1 -5.60029e-08 316.336 218.512)" fill="#0BABFB" stroke="black" stroke-width="1.25616"/>
<rect x="-0.628082" y="-0.628082" width="184.656" height="222.341" rx="12.771" transform="matrix(4.36237e-08 -1 -1 -4.37993e-08 294.563 201.763)" fill="white" stroke="black" stroke-width="1.25616"/>
<mask id="path-7-inside-1_285_2874" fill="white">
<path fill-rule="evenodd" clip-rule="evenodd" d="M295.819 189.995C295.819 197.395 289.82 203.394 282.42 203.394L85.621 203.394C84.1744 203.394 82.7814 203.165 81.4763 202.741L274.883 202.741C282.283 202.741 288.282 196.742 288.282 189.342V30.7879C288.282 23.3878 282.283 17.3888 274.883 17.3888L81.4663 17.3888C82.7743 16.9626 84.1707 16.7322 85.621 16.7322L282.42 16.7322C289.82 16.7322 295.819 22.7312 295.819 30.1313V189.995Z"/>
</mask>
<path fill-rule="evenodd" clip-rule="evenodd" d="M295.819 189.995C295.819 197.395 289.82 203.394 282.42 203.394L85.621 203.394C84.1744 203.394 82.7814 203.165 81.4763 202.741L274.883 202.741C282.283 202.741 288.282 196.742 288.282 189.342V30.7879C288.282 23.3878 282.283 17.3888 274.883 17.3888L81.4663 17.3888C82.7743 16.9626 84.1707 16.7322 85.621 16.7322L282.42 16.7322C289.82 16.7322 295.819 22.7312 295.819 30.1313V189.995Z" fill="black"/>
<path d="M282.42 203.394V204.65V203.394ZM85.621 203.394V202.138V203.394ZM81.4763 202.741L81.4763 201.485L81.0881 203.936L81.4763 202.741ZM274.883 202.741V203.997V202.741ZM288.282 30.7879L287.026 30.7879V30.7879H288.282ZM274.883 17.3888V16.1326V17.3888ZM81.4663 17.3888L81.0771 16.1944L81.4663 18.6449L81.4663 17.3888ZM85.621 16.7322V15.476V16.7322ZM282.42 16.7322V15.476V16.7322ZM295.819 30.1313L294.563 30.1313V30.1313H295.819ZM282.42 204.65C290.514 204.65 297.075 198.089 297.075 189.995H294.563C294.563 196.702 289.126 202.138 282.42 202.138V204.65ZM85.621 204.65L282.42 204.65V202.138L85.621 202.138V204.65ZM81.0881 203.936C82.5171 204.4 84.041 204.65 85.621 204.65V202.138C84.3079 202.138 83.0458 201.93 81.8646 201.546L81.0881 203.936ZM81.4763 203.997L274.883 203.997V201.485L81.4763 201.485L81.4763 203.997ZM274.883 203.997C282.977 203.997 289.538 197.436 289.538 189.342H287.026C287.026 196.048 281.589 201.485 274.883 201.485V203.997ZM289.538 189.342V30.7879H287.026V189.342H289.538ZM289.538 30.7879C289.538 22.694 282.977 16.1326 274.883 16.1326V18.6449C281.589 18.6449 287.026 24.0815 287.026 30.7879L289.538 30.7879ZM274.883 16.1326L81.4663 16.1326L81.4663 18.6449L274.883 18.6449V16.1326ZM85.621 15.476C84.037 15.476 82.5093 15.7278 81.0771 16.1944L81.8555 18.5831C83.0394 18.1974 84.3045 17.9883 85.621 17.9883V15.476ZM282.42 15.476L85.621 15.476V17.9883L282.42 17.9883V15.476ZM297.075 30.1313C297.075 22.0374 290.514 15.476 282.42 15.476V17.9883C289.126 17.9884 294.563 23.4249 294.563 30.1313L297.075 30.1313ZM297.075 189.995V30.1313H294.563V189.995H297.075Z" fill="black" mask="url(#path-7-inside-1_285_2874)"/>
<rect x="79.1307" y="86.8244" width="11.3055" height="38.1036" rx="5.65274" transform="rotate(180 79.1307 86.8244)" fill="#0ED065" stroke="black" stroke-width="1.25616"/>
<rect x="79.1307" y="171.406" width="11.3055" height="38.1036" rx="5.65274" transform="rotate(180 79.1307 171.406)" fill="#0ED065" stroke="black" stroke-width="1.25616"/>
<path d="M68.0347 68.1913L78.9214 68.1913" stroke="black" stroke-width="1.25616" stroke-linecap="round"/>
<path d="M68.0347 151.935L78.9214 151.935" stroke="black" stroke-width="1.25616" stroke-linecap="round"/>
<rect x="-0.628082" y="-0.628082" width="114.311" height="136.922" rx="12.771" transform="matrix(4.36237e-08 -1 -1 -4.37993e-08 245.154 166.591)" fill="black" stroke="black" stroke-width="1.25616"/>
<rect x="-0.628082" y="-0.628082" width="114.311" height="136.922" rx="12.771" transform="matrix(4.36237e-08 -1 -1 -4.37993e-08 251.853 166.591)" fill="#0BABFB" stroke="black" stroke-width="1.25616"/>
<rect x="166.225" y="103.154" width="10.468" height="24.7045" rx="5.23401" transform="rotate(90 166.225 103.154)" fill="black" stroke="black" stroke-width="1.25616"/>
<rect x="166.225" y="123.253" width="10.468" height="24.7045" rx="5.23401" transform="rotate(90 166.225 123.253)" fill="black" stroke="black" stroke-width="1.25616"/>
<rect x="166.225" y="143.352" width="10.468" height="24.7045" rx="5.23401" transform="rotate(90 166.225 143.352)" fill="black" stroke="black" stroke-width="1.25616"/>
<rect x="197.211" y="103.154" width="10.468" height="24.7045" rx="5.23401" transform="rotate(90 197.211 103.154)" fill="black" stroke="black" stroke-width="1.25616"/>
<rect x="197.211" y="123.253" width="10.468" height="24.7045" rx="5.23401" transform="rotate(90 197.211 123.253)" fill="black" stroke="black" stroke-width="1.25616"/>
<rect x="197.211" y="143.352" width="10.468" height="24.7045" rx="5.23401" transform="rotate(90 197.211 143.352)" fill="black" stroke="black" stroke-width="1.25616"/>
<rect x="228.195" y="103.154" width="10.468" height="24.7045" rx="5.23401" transform="rotate(90 228.195 103.154)" fill="black" stroke="black" stroke-width="1.25616"/>
<rect x="228.195" y="123.253" width="10.468" height="24.7045" rx="5.23401" transform="rotate(90 228.195 123.253)" fill="black" stroke="black" stroke-width="1.25616"/>
<rect x="228.195" y="143.352" width="10.468" height="24.7045" rx="5.23401" transform="rotate(90 228.195 143.352)" fill="black" stroke="black" stroke-width="1.25616"/>
<rect x="166.225" y="99.8047" width="11.3055" height="24.7045" rx="5.65274" transform="rotate(90 166.225 99.8047)" fill="white" stroke="black" stroke-width="1.25616"/>
<rect x="166.225" y="119.903" width="11.3055" height="24.7045" rx="5.65274" transform="rotate(90 166.225 119.903)" fill="white" stroke="black" stroke-width="1.25616"/>
<rect x="166.225" y="140.002" width="11.3055" height="24.7045" rx="5.65274" transform="rotate(90 166.225 140.002)" fill="white" stroke="black" stroke-width="1.25616"/>
<rect x="197.211" y="99.8047" width="11.3055" height="24.7045" rx="5.65274" transform="rotate(90 197.211 99.8047)" fill="white" stroke="black" stroke-width="1.25616"/>
<rect x="197.211" y="119.903" width="11.3055" height="24.7045" rx="5.65274" transform="rotate(90 197.211 119.903)" fill="#0ED065" stroke="black" stroke-width="1.25616"/>
<rect x="197.211" y="140.002" width="11.3055" height="24.7045" rx="5.65274" transform="rotate(90 197.211 140.002)" fill="white" stroke="black" stroke-width="1.25616"/>
<rect x="228.195" y="99.8047" width="11.3055" height="24.7045" rx="5.65274" transform="rotate(90 228.195 99.8047)" fill="white" stroke="black" stroke-width="1.25616"/>
<rect x="228.195" y="119.903" width="11.3055" height="24.7045" rx="5.65274" transform="rotate(90 228.195 119.903)" fill="white" stroke="black" stroke-width="1.25616"/>
<rect x="228.195" y="140.002" width="11.3055" height="24.7045" rx="5.65274" transform="rotate(90 228.195 140.002)" fill="white" stroke="black" stroke-width="1.25616"/>
<rect x="140.055" y="65.679" width="86.2566" height="23.4484" rx="6.69954" fill="black"/>
<rect x="142.358" y="65.4696" width="85.0004" height="22.1922" rx="6.07146" fill="white" stroke="black" stroke-width="1.25616"/>
<path d="M162.666 77.4031L185.905 77.4031M214.587 77.4032L197.524 77.4032" stroke="black" stroke-width="1.25616" stroke-linecap="round"/>
<rect x="301.053" y="128.697" width="21.3548" height="38.1036" rx="6.07146" transform="rotate(180 301.053 128.697)" fill="black" stroke="black" stroke-width="1.25616"/>
<rect x="306.077" y="128.697" width="21.3548" height="38.1036" rx="6.07146" transform="rotate(180 306.077 128.697)" fill="white" stroke="black" stroke-width="1.25616"/>
<path d="M294.982 103.364V115.088" stroke="black" stroke-width="1.25616" stroke-linecap="round"/>
</svg>
